<svg id="Layer_1" data-name="Layer 1" xmlns="http://www.w3.org/2000/svg" viewBox="0 0 126.21 103.66"><defs><style>.cls-1{fill:#4c403b;}.cls-2{fill:#c10000;}.cls-3{fill:#ff4949;}</style></defs><path class="cls-1" d="M89.05,89.06H12.25V83.21h76.8a4.46,4.46,0,1,0,0-8.92H86.77V68.54h2.28a10.26,10.26,0,0,1,0,20.52Z" transform="translate(0.21 -0.46)"/><path class="cls-2" d="M12.25,104.12a10.51,10.51,0,1,1,10.5-10.51A10.52,10.52,0,0,1,12.25,104.12Zm0-15.06a4.66,4.66,0,1,0,4.66,4.65A4.65,4.65,0,0,0,12.25,89.06Z" transform="translate(0.21 -0.46)"/><path class="cls-2" d="M89.84,104.12a10.51,10.51,0,1,1,10.51-10.51A10.51,10.51,0,0,1,89.84,104.12Zm0-15.06a4.66,4.66,0,1,0,4.66,4.65A4.65,4.65,0,0,0,89.84,89.06Z" transform="translate(0.21 -0.46)"/><path class="cls-2" d="M98.37,3.14a3,3,0,0,0-2.88,2.38L94.3,12.35H2.64a2.83,2.83,0,0,0-2.18,1,2.6,2.6,0,0,0-.6,2.38L9.47,72a2.89,2.89,0,0,0,2.88,2.38H86.77A3,3,0,0,0,89.65,72L94.5,43.87,100.84,9h9.72V3.14ZM9.47,37.62h11.4l1.29,12.89H11.65Zm17.15,0H38l.4,12.89H27.91Zm28.84-5.74H43.66L43.17,18.1H56ZM61.7,18.1H74.48L73.1,31.88H61.3ZM55.26,37.62l-.4,12.89H44.36L44,37.62ZM37.82,31.88H26L24.64,18.1H37.42Zm.79,24.47L39,68.54H29.79L28.5,56.35Zm5.85,0h10.1l-.39,12.19H44.85Zm15.95,0H70.52L69.23,68.54H59.92Zm.2-5.84L61,37.62H72.4L71.11,50.51ZM78.25,37.62h11.4l-.9,5.16h0l-1.28,7.73H77Zm12.39-5.74H78.84L80.23,18.1H92.92ZM18.79,18.1l1.39,13.78H8.38L6,18.1ZM12.65,56.35h10.1L24,68.54H14.83ZM75.08,68.54l1.29-12.19h10.1L84.29,68.54Z" transform="translate(0.21 -0.46)"/><path class="cls-3" d="M122.82,11.66H105V.46h17.81c1.77,0,3.18,2.28,3.18,5.15v.8C126.06,9.28,124.59,11.66,122.82,11.66Z" transform="translate(0.21 -0.46)"/></svg>