<?xml version="1.0" standalone="no"?>
<!DOCTYPE svg PUBLIC "-//W3C//DTD SVG 20010904//EN"
 "http://www.w3.org/TR/2001/REC-SVG-20010904/DTD/svg10.dtd">
<svg version="1.0" xmlns="http://www.w3.org/2000/svg"
 width="1008.000000pt" height="1008.000000pt" viewBox="0 0 1008.000000 1008.000000"
 preserveAspectRatio="xMidYMid meet">
<metadata>
Created by potrace 1.14, written by Peter Selinger 2001-2017
</metadata>
<g transform="translate(0.000000,1008.000000) scale(0.100000,-0.100000)"
fill="#000000" stroke="none">
<path d="M8405 9098 c1 -46 -3 -89 -8 -95 -6 -9 -5 -13 4 -13 10 0 10 -3 1
-12 -9 -9 -89 -12 -294 -12 l-283 -1 -56 -28 c-40 -21 -64 -42 -87 -76 -30
-47 -36 -63 -48 -141 -3 -19 -8 -44 -11 -54 -3 -11 -7 -36 -9 -55 -2 -20 -6
-47 -9 -61 -14 -64 -16 -78 -20 -117 -2 -24 -6 -46 -9 -51 -2 -4 -7 -28 -11
-52 -4 -25 -9 -52 -10 -60 -2 -8 -4 -21 -4 -27 -1 -10 -757 -13 -3698 -15
l-3698 -3 -41 -27 c-86 -56 -119 -121 -111 -218 3 -33 8 -63 10 -67 3 -5 8
-33 12 -63 3 -30 10 -71 15 -90 5 -19 11 -54 14 -77 3 -22 8 -52 11 -65 3 -12
7 -36 9 -53 2 -16 9 -61 16 -100 7 -38 14 -79 15 -90 2 -11 4 -22 5 -25 1 -3
2 -9 1 -13 -1 -5 3 -26 9 -48 6 -22 12 -57 14 -77 2 -20 6 -48 9 -62 4 -14 9
-41 12 -60 2 -19 7 -46 9 -60 3 -14 15 -83 26 -154 12 -71 24 -139 26 -150 2
-12 7 -37 10 -56 3 -19 8 -46 10 -60 3 -14 7 -36 9 -50 7 -42 12 -74 19 -110
3 -19 8 -48 11 -65 3 -16 10 -59 16 -95 6 -36 13 -74 14 -85 2 -11 8 -49 15
-85 7 -36 13 -74 15 -85 2 -20 14 -91 21 -130 2 -10 6 -37 9 -60 3 -22 8 -47
10 -55 4 -15 13 -60 20 -110 2 -14 6 -36 9 -50 3 -14 7 -43 11 -65 6 -42 15
-97 22 -130 4 -23 42 -244 49 -290 7 -44 23 -136 29 -165 3 -14 8 -41 11 -60
3 -19 7 -44 8 -55 14 -83 27 -153 30 -170 2 -11 7 -42 10 -69 4 -27 9 -52 10
-55 2 -3 7 -26 10 -51 7 -50 12 -82 26 -155 9 -49 19 -110 25 -150 4 -31 35
-207 40 -235 3 -14 8 -41 11 -60 3 -19 17 -100 30 -180 14 -80 27 -158 30
-175 16 -104 30 -151 55 -188 29 -44 87 -84 137 -94 23 -5 5900 -7 6117 -2
106 3 159 -7 224 -39 157 -78 234 -269 174 -434 -33 -91 -120 -181 -213 -219
-30 -12 -484 -14 -3197 -16 -1740 -1 -3183 -5 -3208 -8 -54 -6 -151 -38 -220
-73 -56 -28 -136 -80 -147 -96 -4 -6 -8 -7 -8 -3 0 18 -136 -131 -175 -193
-71 -110 -129 -270 -135 -372 -4 -74 -2 -170 4 -203 3 -22 9 -52 11 -68 8 -44
34 -118 62 -177 123 -255 364 -432 643 -471 73 -11 261 -6 282 7 6 4 18 8 27
9 25 2 75 17 86 25 6 4 22 10 37 14 65 15 195 104 282 193 70 71 72 73 110
138 19 33 39 65 43 70 4 6 10 17 12 25 3 8 17 52 32 97 60 176 56 367 -12 547
-11 31 -21 59 -22 63 -1 4 1050 7 2336 8 1285 0 2337 -4 2337 -8 0 -5 -9 -29
-20 -55 -39 -95 -54 -180 -53 -307 0 -109 6 -150 34 -240 43 -141 123 -269
228 -368 34 -31 66 -57 71 -57 6 0 10 -3 10 -7 0 -17 154 -96 245 -125 114
-36 305 -47 403 -24 12 4 31 8 43 11 51 11 185 62 204 77 5 4 37 26 70 48 72
48 115 87 176 160 45 54 124 180 112 180 -3 0 -1 6 4 12 10 12 32 74 33 90 1
4 7 25 14 46 30 84 35 240 12 362 -19 97 -100 285 -141 327 -8 8 -15 18 -15
22 0 4 -27 34 -59 66 l-59 59 37 50 c64 88 122 201 137 271 3 11 7 29 9 40 3
11 8 31 11 45 8 34 9 226 2 275 -55 335 -340 626 -658 671 -49 7 -60 19 -50
57 5 18 12 52 15 77 4 25 10 63 15 85 5 22 11 62 15 89 3 27 8 52 9 55 2 3 7
26 10 51 3 25 8 55 10 66 2 12 7 37 10 55 3 19 8 45 10 59 3 14 7 41 10 60 3
19 8 46 11 60 2 13 7 42 10 65 3 22 8 47 10 55 2 8 6 31 9 50 3 19 14 87 26
150 11 63 22 129 25 145 3 17 8 41 10 55 3 14 8 42 11 64 3 21 8 48 10 60 2
11 6 37 9 56 3 19 7 46 10 60 6 31 23 124 30 170 3 19 8 42 10 50 2 8 7 35 10
60 3 25 7 52 10 60 2 8 6 37 10 64 3 27 8 53 10 57 3 3 7 31 11 60 3 30 8 57
10 60 2 4 6 24 9 45 3 22 8 50 11 64 3 14 7 34 9 45 2 11 9 49 16 85 6 36 13
74 15 85 1 11 5 30 8 41 2 12 7 37 10 55 3 19 10 59 16 89 6 30 13 71 16 90 3
19 8 46 10 60 3 14 7 34 9 45 1 11 10 61 20 110 9 50 18 99 20 110 16 86 55
305 60 326 2 14 7 41 9 60 3 19 5 34 6 34 1 0 4 14 6 30 2 17 9 50 14 75 5 25
12 59 15 75 2 17 7 47 10 69 4 21 9 48 11 60 3 11 13 68 24 126 11 58 21 116
24 130 3 13 8 42 11 65 3 22 9 49 12 60 3 11 7 31 8 45 1 14 7 50 13 80 21
102 23 115 26 135 2 11 6 36 10 55 4 19 9 49 11 65 2 17 5 30 6 30 1 0 3 9 4
20 2 17 31 173 40 215 2 8 4 20 4 26 1 8 51 12 165 12 l164 0 5 -23 c2 -13 -1
-29 -6 -34 -7 -7 -7 -11 -1 -11 5 0 9 -30 8 -69 -2 -45 2 -71 9 -73 7 -2 336
-4 732 -3 l720 0 47 28 c72 42 118 115 148 232 15 58 18 101 16 207 -2 73 -6
142 -9 153 -28 106 -90 213 -137 237 -14 7 -28 17 -32 23 -5 6 -269 11 -751
13 l-744 2 2 -82z m-5396 -1431 c6 -290 9 -358 14 -363 3 -3 1 -18 -3 -34 -4
-16 -6 -31 -3 -34 3 -3 7 -85 9 -183 3 -98 6 -224 8 -280 l3 -103 -474 0 -473
0 -1 23 c-2 45 -12 155 -24 267 -6 59 -14 132 -20 200 -3 30 -7 76 -10 103 -3
26 -7 70 -10 97 -3 28 -7 71 -10 98 -3 26 -8 72 -10 102 -3 30 -7 81 -10 114
-3 32 -8 62 -10 67 -3 4 1 13 8 21 11 10 108 12 514 10 l500 -2 2 -103z
m-1492 91 c1 -7 4 -29 7 -48 3 -19 8 -61 10 -93 3 -31 8 -62 11 -67 3 -6 1
-10 -5 -10 -6 0 -8 -4 -5 -10 9 -14 12 -35 20 -125 3 -44 8 -91 10 -105 2 -14
7 -54 10 -90 3 -36 7 -78 9 -95 2 -16 7 -68 11 -114 4 -47 8 -92 10 -100 1 -9
6 -51 10 -93 3 -43 8 -91 10 -108 l4 -30 -469 0 -469 0 -10 38 c-5 20 -15 71
-21 112 -7 41 -14 84 -16 95 -3 11 -7 36 -9 55 -3 19 -8 46 -11 60 -3 14 -8
39 -10 55 -2 17 -6 41 -9 55 -5 25 -11 61 -19 110 -2 14 -9 52 -14 85 -6 33
-13 76 -16 95 -3 19 -8 46 -11 60 -6 27 -11 56 -19 110 -3 19 -8 46 -11 60 -3
14 -8 44 -11 68 l-5 42 509 0 c400 0 509 -3 509 -12z m2968 -90 c-9 -245 -16
-429 -20 -517 -2 -51 -7 -168 -11 -260 -3 -91 -7 -177 -8 -191 l-1 -25 -469 0
c-435 0 -469 1 -472 17 -2 16 -11 248 -20 533 -8 233 -15 442 -17 493 l-2 52
511 0 512 0 -3 -102z m1479 80 c-4 -22 -8 -61 -20 -183 -3 -33 -7 -78 -10
-100 -4 -47 -12 -124 -19 -197 -3 -29 -7 -73 -10 -98 -6 -61 -13 -133 -20
-205 -3 -33 -8 -76 -10 -95 -2 -19 -7 -64 -10 -100 -3 -36 -8 -73 -11 -82 -5
-17 -36 -18 -474 -18 l-468 0 5 123 c2 67 4 128 4 135 -2 26 -2 41 3 162 2 69
8 224 11 345 8 247 11 329 13 333 1 1 231 2 511 2 l510 0 -5 -22z m1472 5 c-3
-10 -12 -61 -21 -113 -8 -52 -17 -106 -19 -120 -2 -14 -10 -59 -16 -100 -7
-41 -14 -84 -16 -95 -2 -11 -7 -40 -10 -65 -3 -25 -10 -63 -14 -85 -5 -22 -12
-62 -15 -90 -4 -27 -8 -57 -10 -65 -3 -8 -7 -33 -10 -55 -3 -22 -8 -49 -10
-61 -3 -12 -7 -39 -10 -60 -3 -21 -8 -50 -11 -64 -3 -14 -8 -40 -10 -59 -3
-19 -7 -38 -10 -42 -3 -5 -217 -9 -475 -9 -443 0 -470 1 -465 18 3 9 8 49 11
87 3 39 8 86 10 105 3 19 7 64 10 100 3 36 7 81 9 100 3 19 7 67 11 105 4 39
9 84 11 100 2 17 6 57 9 90 3 33 7 80 10 105 3 25 7 68 10 95 2 28 7 77 11
110 4 33 7 66 7 73 0 9 109 12 509 12 480 0 509 -1 504 -17z m-5769 -1543 c14
0 21 -6 21 -17 -1 -10 2 -49 6 -88 15 -142 17 -161 21 -215 3 -30 7 -71 9 -90
6 -42 14 -125 21 -200 6 -70 16 -167 20 -200 5 -48 18 -175 19 -195 1 -20 -6
-20 -416 -21 l-417 -1 -7 26 c-4 14 -8 35 -9 46 -4 35 -30 189 -40 235 -3 14
-7 41 -10 60 -3 19 -7 46 -10 60 -2 14 -7 39 -9 55 -11 67 -27 163 -42 245 -4
19 -8 45 -10 56 -3 28 -12 83 -18 110 -2 12 -7 39 -10 60 -4 22 -9 47 -12 56
-4 15 4 17 68 20 55 2 676 1 825 -2z m1381 -4 c3 -4 7 -55 8 -114 1 -59 5
-204 9 -322 13 -418 17 -554 16 -576 -1 -8 -120 -11 -418 -10 -408 1 -416 1
-420 21 -2 11 -5 47 -8 80 -3 33 -7 76 -9 95 -2 19 -6 71 -10 115 -4 44 -10
91 -12 105 -2 14 -7 54 -9 90 -3 36 -7 88 -10 115 -3 28 -8 70 -10 95 -3 25
-7 65 -10 90 -2 25 -7 74 -10 110 -3 36 -7 74 -9 85 -3 17 4 21 43 25 66 7
851 3 859 -4z m1370 4 c10 0 11 -32 7 -147 -3 -82 -7 -231 -10 -333 -3 -102
-8 -255 -11 -340 -3 -85 -5 -167 -5 -181 l1 -26 -420 0 c-231 0 -420 3 -421 6
0 3 -2 71 -4 151 -3 131 -8 309 -20 727 -5 140 -4 142 18 145 16 2 771 1 865
-2z m1340 0 l43 0 -5 -42 c-3 -24 -8 -70 -11 -103 -4 -33 -8 -73 -10 -90 -3
-16 -7 -61 -10 -99 -3 -38 -8 -88 -10 -110 -2 -23 -7 -68 -10 -101 -7 -67 -11
-111 -21 -200 -3 -33 -8 -76 -9 -95 -8 -97 -17 -175 -21 -181 -2 -3 -191 -6
-419 -6 l-416 0 7 251 c4 138 7 299 8 358 0 60 3 108 6 108 3 0 5 55 5 123 0
158 3 185 23 189 12 2 551 1 850 -2z m1400 1 c13 -1 21 -4 19 -8 -5 -8 -9 -30
-22 -118 -6 -37 -9 -53 -20 -110 -4 -20 -14 -80 -20 -120 -2 -11 -6 -36 -9
-55 -9 -50 -23 -130 -41 -245 -2 -11 -6 -38 -10 -60 -3 -22 -9 -53 -12 -70 -3
-16 -7 -39 -9 -50 -6 -49 -25 -161 -30 -176 -4 -14 -47 -16 -417 -15 l-412 1
1 55 c1 56 11 176 19 240 5 38 11 100 20 200 3 36 7 85 10 110 7 74 17 173 20
200 2 14 6 59 10 100 4 41 9 84 10 95 1 11 11 22 24 25 17 4 728 4 869 1z
m-5321 -1526 c5 -69 13 -152 17 -175 5 -24 15 -114 21 -190 5 -64 16 -174 20
-210 17 -141 18 -148 30 -296 l6 -72 -366 0 c-260 1 -365 4 -366 12 0 6 -2 18
-4 26 -3 16 -34 183 -39 215 -2 11 -11 63 -21 115 -9 52 -18 109 -21 125 -4
27 -15 84 -28 155 -33 172 -41 217 -51 290 l-5 35 402 0 403 0 2 -30z m1264
15 c2 -70 10 -286 14 -430 3 -96 8 -254 11 -352 l6 -176 -369 1 c-360 2 -368
2 -370 22 -1 11 -4 47 -7 80 -3 33 -6 60 -7 60 0 0 -2 14 -4 30 -1 17 -6 59
-10 95 -4 36 -8 81 -10 100 -1 19 -5 58 -9 85 -3 28 -8 73 -11 100 -2 28 -7
75 -10 105 -4 30 -8 71 -10 90 -2 19 -7 64 -10 100 -3 36 -8 71 -10 78 -3 8
-3 17 -1 20 2 4 185 7 405 7 351 0 401 -2 402 -15z m1269 -90 c-1 -58 -4 -163
-6 -235 -1 -71 -3 -130 -4 -130 -2 0 -11 -288 -13 -416 l-2 -85 -372 -1 c-271
0 -373 3 -374 11 -2 33 -18 517 -25 771 l-5 190 402 0 402 0 -3 -105z m1274
65 c-2 -22 -6 -62 -9 -90 -7 -75 -15 -146 -21 -186 -2 -20 -7 -63 -9 -95 -3
-32 -7 -72 -9 -89 -2 -16 -7 -61 -10 -100 -4 -38 -9 -81 -11 -95 -2 -14 -6
-56 -10 -95 -3 -38 -8 -90 -12 -115 -3 -25 -6 -50 -6 -56 0 -8 -111 -11 -372
-11 l-372 0 3 81 c2 45 5 142 8 216 3 74 8 191 11 260 3 69 8 186 11 260 3 74
6 140 6 145 1 7 137 10 404 10 l403 0 -5 -40z m1271 0 c-4 -22 -9 -50 -10 -62
-2 -12 -6 -34 -9 -50 -3 -15 -8 -41 -11 -58 -2 -16 -9 -55 -15 -85 -6 -30 -13
-73 -16 -95 -3 -22 -8 -47 -11 -55 -3 -8 -7 -28 -9 -45 -6 -45 -49 -283 -59
-325 -1 -8 -6 -40 -10 -70 -13 -96 23 -88 -387 -86 -316 1 -363 3 -363 16 1 8
5 49 9 90 5 41 10 92 12 113 2 20 6 56 9 80 3 23 7 62 9 87 2 25 7 70 11 100
4 30 8 71 10 90 5 66 17 175 21 204 5 28 15 136 16 166 1 8 5 17 9 20 4 3 186
5 404 5 l397 0 -7 -40z m-5906 -2576 c16 11 95 -9 158 -40 83 -40 163 -140
188 -234 11 -41 13 -145 4 -151 -5 -2 -6 -11 -3 -18 8 -20 -42 -124 -79 -166
-74 -84 -152 -121 -263 -126 -164 -7 -284 65 -355 212 -84 176 -6 401 169 486
54 26 154 49 162 37 3 -4 12 -4 19 0z m6254 -4 c106 -18 208 -94 257 -193 42
-83 51 -146 36 -242 -20 -123 -120 -237 -248 -281 -79 -27 -195 -20 -272 15
-156 73 -245 256 -205 418 7 29 12 56 11 61 -1 4 2 7 7 7 5 0 12 11 15 24 5
21 84 109 127 141 22 17 97 45 137 51 20 3 38 7 39 8 3 3 52 -1 96 -9z"/>
</g>
</svg>
